<?xml version="1.0" encoding="UTF-8" standalone="no"?>
<svg
   xmlns:dc="http://purl.org/dc/elements/1.1/"
   xmlns:cc="http://creativecommons.org/ns#"
   xmlns:rdf="http://www.w3.org/1999/02/22-rdf-syntax-ns#"
   xmlns:svg="http://www.w3.org/2000/svg"
   xmlns="http://www.w3.org/2000/svg"
   xmlns:sodipodi="http://sodipodi.sourceforge.net/DTD/sodipodi-0.dtd"
   xmlns:inkscape="http://www.inkscape.org/namespaces/inkscape"
   version="1.1"
   x="0px"
   y="0px"
   viewBox="0 0 323.61441 398.26068"
   xml:space="preserve"
   id="svg86"
   sodipodi:docname="gone-fishing.svg"
   width="323.61441"
   height="398.26068"
   inkscape:version="1.0.1 (3bc2e813f5, 2020-09-07)"><metadata
   id="metadata92"><rdf:RDF><cc:Work
       rdf:about=""><dc:format>image/svg+xml</dc:format><dc:type
         rdf:resource="http://purl.org/dc/dcmitype/StillImage" /><dc:title></dc:title></cc:Work></rdf:RDF></metadata><defs
   id="defs90">
	

		
		
		
		
		
		
		
		
		
		
		
		
		
		
		
		
		
		
		
		
	</defs><sodipodi:namedview
   pagecolor="#ffffff"
   bordercolor="#666666"
   borderopacity="1"
   objecttolerance="10"
   gridtolerance="10"
   guidetolerance="10"
   inkscape:pageopacity="0"
   inkscape:pageshadow="2"
   inkscape:window-width="1366"
   inkscape:window-height="705"
   id="namedview88"
   showgrid="false"
   inkscape:showpageshadow="false"
   fit-margin-top="10"
   lock-margins="false"
   fit-margin-bottom="20"
   fit-margin-left="10"
   fit-margin-right="10"
   inkscape:zoom="0.7425"
   inkscape:cx="58.091592"
   inkscape:cy="226.51503"
   inkscape:window-x="-8"
   inkscape:window-y="-8"
   inkscape:window-maximized="1"
   inkscape:current-layer="svg86"
   inkscape:document-rotation="0" />
<g
   transform="translate(524.30535,-83.339451)"
   id="g4"
   style="fill:#000000;fill-opacity:1">
			<path
   d="m -358.965,290.108 c -0.083,-0.694 -0.249,-1.347 -0.477,-1.937 -0.238,-0.59 -0.601,-1.098 -1.077,-1.512 -0.477,-0.414 -1.119,-0.622 -1.917,-0.611 -1.595,0.031 -3.056,0.456 -4.392,1.274 -1.326,0.818 -2.528,1.896 -3.574,3.243 -1.046,1.336 -1.958,2.849 -2.725,4.527 -0.777,1.689 -1.43,3.388 -1.979,5.118 -0.539,1.73 -0.922,3.419 -1.15,5.066 -0.218,1.647 -0.321,3.077 -0.3,4.268 0.01,0.549 0.114,1.119 0.321,1.72 0.218,0.59 0.497,1.108 0.849,1.554 0.363,0.445 0.798,0.818 1.336,1.14 0.528,0.311 1.088,0.466 1.689,0.456 2.238,-0.041 4.216,-0.839 5.936,-2.414 1.72,-1.575 3.139,-3.491 4.247,-5.76 1.108,-2.258 1.958,-4.662 2.538,-7.221 0.58,-2.548 0.849,-4.869 0.818,-6.972 -0.008,-0.592 -0.06,-1.244 -0.143,-1.939 z m 0,0 c -0.083,-0.694 -0.249,-1.347 -0.477,-1.937 -0.238,-0.59 -0.601,-1.098 -1.077,-1.512 -0.477,-0.414 -1.119,-0.622 -1.917,-0.611 -1.595,0.031 -3.056,0.456 -4.392,1.274 -1.326,0.818 -2.528,1.896 -3.574,3.243 -1.046,1.336 -1.958,2.849 -2.725,4.527 -0.777,1.689 -1.43,3.388 -1.979,5.118 -0.539,1.73 -0.922,3.419 -1.15,5.066 -0.218,1.647 -0.321,3.077 -0.3,4.268 0.01,0.549 0.114,1.119 0.321,1.72 0.218,0.59 0.497,1.108 0.849,1.554 0.363,0.445 0.798,0.818 1.336,1.14 0.528,0.311 1.088,0.466 1.689,0.456 2.238,-0.041 4.216,-0.839 5.936,-2.414 1.72,-1.575 3.139,-3.491 4.247,-5.76 1.108,-2.258 1.958,-4.662 2.538,-7.221 0.58,-2.548 0.849,-4.869 0.818,-6.972 -0.008,-0.592 -0.06,-1.244 -0.143,-1.939 z m 147.238,19.352 -1.026,-3.129 -0.653,-2.807 -1.015,-3.647 -0.891,-3.191 -1.388,-3.46 -2.859,-1.14 1.274,-1.73 0.238,-1.036 -2.994,-8.443 -0.456,-3.263 0.352,-2.435 -0.932,-1.347 1.191,-1.771 0.104,-2.03 0.093,-3.284 0.59,-4.082 -0.518,-2.227 -1.533,-0.995 1.005,-1.336 0.197,-2.321 -0.673,-4.693 -0.238,-3.926 -0.953,-3.47 -0.052,-1.647 -0.383,-2.901 -1.388,-1.191 -2.02,0.456 -5.004,2.403 -5.75,4.061 -5.18,5.377 -4.071,4.859 -3.968,5.718 -0.062,0.01 -2.279,2.745 -2.787,1.647 -2.621,1.461 -3.522,1.316 -2.745,0.445 -4.392,0.269 h -2.424 l -2.248,-0.021 -0.218,-0.052 c 0.435,-0.456 0.591,-0.984 1.098,-1.378 0.497,-0.394 1.44,-0.632 1.958,-0.984 0.549,-0.373 1.119,-0.736 1.689,-1.067 l 0.777,-1.015 -0.197,-1.471 -0.922,-1.885 -1.73,-1.077 -2.476,-0.456 -1.989,0.518 c -0.694,0.425 -1.378,0.86 -2.051,1.316 -0.777,0.518 -1.533,1.046 -2.289,1.595 -0.974,0.704 -1.927,1.44 -2.88,2.196 l -2.176,1.005 0.124,0.093 -0.787,-0.187 -5.646,-0.715 -8.557,-0.539 -8.671,-1.108 -6.019,-0.746 -10.349,-1.088 -5.397,-0.849 -3.035,-0.673 c 1.958,-0.3 3.657,-1.906 5.449,-2.973 1.326,-0.787 2.849,-1.129 3.926,-2.538 0.166,-0.207 0.383,-0.477 0.342,-0.829 -0.052,-0.456 -0.518,-0.559 -0.684,-0.974 -0.197,-0.466 -0.083,-1.119 -0.29,-1.575 -0.746,-1.544 -2.041,-2.082 -3.077,-3.087 -0.891,-0.87 -1.865,-1.533 -2.714,-2.538 -0.694,-0.829 -1.305,-1.854 -1.916,-2.838 -0.528,-0.849 -0.829,-2.289 -1.523,-2.642 -1.036,-0.528 -2.269,2.756 -2.911,1.295 -0.476,-1.057 1.326,-1.45 1.357,-2.662 0.01,-0.456 -0.249,-0.901 -0.445,-1.274 -0.673,-1.253 -1.637,-1.999 -2.445,-3.035 -0.912,-1.16 -1.979,-2.103 -2.714,-3.553 -0.249,-0.487 -0.321,-1.119 -0.518,-1.637 -0.197,-0.487 -0.394,-0.994 -0.653,-1.388 -0.622,-0.912 -1.471,-1.264 -2.103,-2.134 -0.404,-0.549 -0.559,-1.689 -1.046,-1.906 -0.725,-0.311 -1.253,1.979 -1.906,1.326 -0.29,-0.3 -0.176,-1.077 -0.135,-1.585 0.062,-0.767 0.694,-1.285 0.559,-2.082 -0.186,-1.222 -1.026,-2.445 -1.782,-2.662 -0.135,-0.041 -0.259,-0.041 -0.373,-0.021 v -0.01 c -0.849,0.135 -1.502,1.461 -2.207,2.207 -0.684,0.746 -1.295,1.647 -1.906,2.548 -0.87,1.285 -1.689,2.662 -2.497,4.061 -0.995,1.72 -1.968,3.481 -2.89,5.304 -1.492,2.952 -2.849,6.071 -4.268,9.116 -1.523,3.284 -2.994,6.651 -4.579,9.862 -0.829,1.678 -2.269,2.901 -2.569,4.9 0.041,0.238 0.145,0.414 0.269,0.57 l -1.689,0.135 -5.884,1.865 -9.727,1.523 -7.252,1.606 -5.242,1.44 -5.553,2.103 -5.397,2.062 -3.937,1.73 -4.641,2.548 -3.367,1.813 -3.512,1.979 -2.393,1.254 c -1.243,0.518 -1.906,0.58 -2.952,1.129 l -2.704,1.626 -2.59,2.03 -2.217,1.751 -1.668,0.58 -2.517,1.699 -2.807,2.103 -2.828,2.186 -2.973,2.673 -2.3,2.579 -2.082,2.507 -1.699,2.31 -1.378,2.828 -0.767,2.196 -0.135,2.341 0.352,1.709 1.046,1.409 1.823,1.305 3.512,1.885 -0.963,0.746 -1.243,0.3 -1.222,-0.363 -1.233,-0.321 -0.549,0.3 -0.559,1.036 -0.031,1.502 0.704,1.689 2.3,2.538 4.682,3.377 4.714,1.823 9.023,2.445 4.983,1.367 3.947,1.098 2.497,0.062 h 0.041 l -0.062,0.052 3.605,0.559 3.543,1.222 10.587,2.476 2.642,0.611 0.953,1.43 4.983,8.319 4.827,7.179 3.056,3.885 1.222,0.912 0.86,0.135 0.849,-1.481 0.487,-2.414 -0.331,-3.667 -0.715,-5.977 -0.694,-4.765 0.477,0.104 7.645,1.026 9.893,0.632 8.702,0.041 11.24,-1.243 4.682,-1.357 0.093,-0.021 1.492,3.595 1.43,2.414 1.181,1.471 1.243,2.175 1.367,1.968 0.818,0.808 1.088,-0.145 0.508,-1.243 0.186,-1.647 0.663,-1.813 1.015,1.336 8.754,10.256 3.874,3.46 1.057,0.487 0.912,-0.746 0.466,-1.326 0.249,-1.657 -0.549,-4.517 -1.14,-3.232 -0.953,-3.191 -0.559,-4.247 -0.86,0.021 -0.798,-5.604 -0.435,-1.782 -0.611,-1.295 -1.222,-1.181 -0.435,-0.228 1.274,-0.404 6.506,-2.414 7.366,-2.528 9.665,-2.766 4.423,-0.456 2.186,0.539 2.217,1.544 2.559,1.502 3.066,2.455 4.092,2.963 3.191,2.062 3.564,2.383 3.978,2.144 3.336,1.865 3.315,1.771 c 0,0 1.16,0.394 1.72,0.321 0.394,-0.052 0.767,-0.249 1.108,-0.508 0.28,-0.207 0.518,-0.497 0.736,-0.839 0.29,-0.383 0.3,-0.746 0.259,-1.254 1.088,-1.647 0.373,-1.233 0.3,-2.175 -0.021,-0.363 0.269,-0.539 0.321,-0.87 0.124,-0.798 -0.052,-1.709 -0.031,-2.548 0.062,-1.72 0.29,-3.367 0.383,-5.066 0.093,-1.471 0.166,-2.952 0.176,-4.444 0.01,-1.481 0,-2.973 -0.114,-4.475 -0.124,-1.564 -0.28,-2.932 -0.508,-4.486 -0.3,-1.916 -0.373,-3.636 -0.86,-4.91 -0.508,-1.264 0.456,-2.041 -0.414,-3.315 -0.549,-0.818 -0.912,-1.026 -1.067,-0.767 -0.166,0.259 -0.787,0.197 -1.119,0.166 -0.57,-0.062 -0.818,-0.052 -1.398,-0.166 -0.549,-0.114 -1.658,-0.466 -1.658,-0.466 l -1.616,-1.057 c -0.549,0.342 -1.046,0.663 -1.492,0.963 l 4.372,-3.377 5.118,-1.958 6.247,-1.181 5.273,0.031 1.782,0.622 -0.28,0.052 3.802,1.191 0.622,0.207 5.77,1.948 4.527,1.875 4.931,1.958 7.417,2.144 7.262,0.342 5.801,-0.497 z m -183.672,11.613 c -2.279,2.579 -4.734,4.517 -7.386,5.801 -2.642,1.295 -5.159,1.958 -7.552,1.999 -1.844,0.031 -3.615,-0.342 -5.294,-1.108 -1.689,-0.767 -3.149,-1.958 -4.392,-3.564 -1.254,-1.595 -2.248,-3.605 -2.984,-6.039 -0.736,-2.434 -1.129,-5.294 -1.191,-8.578 -0.104,-6.433 0.725,-12.058 2.497,-16.875 1.761,-4.817 4.03,-8.837 6.785,-12.069 2.766,-3.242 5.749,-5.656 8.94,-7.252 3.18,-1.606 6.174,-2.424 8.971,-2.476 1.989,-0.031 3.729,0.29 5.211,0.963 1.481,0.673 2.704,1.595 3.667,2.745 0.963,1.16 1.678,2.517 2.124,4.082 0.456,1.564 0.694,3.211 0.715,4.962 l -10.204,2.113 c -0.487,-1.989 -1.108,-3.398 -1.865,-4.237 -0.767,-0.829 -1.616,-1.243 -2.569,-1.233 -1.243,0.021 -2.6,0.932 -4.061,2.725 -1.471,1.792 -2.828,4.102 -4.082,6.91 -1.243,2.818 -2.289,5.895 -3.139,9.251 -0.839,3.356 -1.285,6.651 -1.326,9.893 0.052,3.097 0.549,5.294 1.492,6.599 0.943,1.305 2.134,1.948 3.584,1.916 0.994,-0.01 2.02,-0.28 3.087,-0.798 1.067,-0.508 2.01,-1.243 2.849,-2.176 0.829,-0.932 1.523,-2.02 2.072,-3.253 0.559,-1.233 0.839,-2.569 0.87,-4.009 l -7.977,1.326 1.295,-7.428 c 2.341,-0.342 4.631,-0.673 6.868,-1.005 1.885,-0.28 3.885,-0.622 5.998,-1.005 2.113,-0.383 3.968,-0.736 5.553,-1.057 -0.259,5.086 -1.181,9.531 -2.766,13.322 -1.584,3.785 -3.511,6.975 -5.79,9.555 z m 37.522,-5.739 c -1.885,2.393 -3.854,4.444 -5.915,6.154 -2.072,1.699 -4.164,3.015 -6.298,3.916 -2.124,0.912 -4.164,1.378 -6.102,1.409 -1.647,0.031 -3.149,-0.259 -4.506,-0.86 -1.357,-0.601 -2.538,-1.502 -3.564,-2.704 -1.015,-1.212 -1.823,-2.766 -2.424,-4.672 -0.611,-1.916 -0.932,-4.216 -0.974,-6.91 -0.052,-2.787 0.249,-5.729 0.901,-8.837 0.642,-3.097 1.544,-6.185 2.683,-9.241 1.15,-3.056 2.569,-5.977 4.268,-8.743 1.699,-2.776 3.584,-5.232 5.636,-7.386 2.062,-2.155 4.278,-3.874 6.651,-5.159 2.372,-1.285 4.848,-1.948 7.448,-1.989 2.238,-0.041 4.102,0.394 5.594,1.285 1.481,0.901 2.652,2.082 3.491,3.533 0.849,1.461 1.461,3.108 1.844,4.952 0.373,1.834 0.58,3.678 0.611,5.522 0.073,4.082 -0.3,7.946 -1.119,11.572 -0.808,3.626 -1.916,6.961 -3.315,9.997 -1.388,3.043 -3.035,5.757 -4.91,8.161 z m 37.439,0.279 c -0.311,2.32 -0.559,4.289 -0.725,5.884 -0.155,0 -0.736,0.124 -1.751,0.363 -1.026,0.238 -2.186,0.518 -3.501,0.839 -1.316,0.321 -2.642,0.663 -3.947,1.005 -1.316,0.342 -2.3,0.622 -2.942,0.829 -0.414,-4.03 -0.86,-7.863 -1.316,-11.489 -0.176,-1.544 -0.373,-3.139 -0.601,-4.776 -0.228,-1.647 -0.435,-3.211 -0.642,-4.703 -0.197,-1.492 -0.394,-2.901 -0.59,-4.216 -0.196,-1.315 -0.373,-2.424 -0.539,-3.315 -0.135,0.891 -0.321,1.999 -0.539,3.294 -0.238,1.305 -0.456,2.683 -0.684,4.165 -0.228,1.471 -0.445,2.994 -0.673,4.569 -0.228,1.575 -0.477,3.118 -0.746,4.61 -0.59,3.553 -1.222,7.252 -1.916,11.105 l -10.867,2.725 c 1.274,-7.055 2.507,-13.933 3.698,-20.636 0.445,-2.797 0.943,-5.729 1.461,-8.806 0.518,-3.077 1.005,-6.102 1.461,-9.075 0.445,-2.973 0.86,-5.843 1.243,-8.619 0.373,-2.776 0.663,-5.314 0.881,-7.604 1.544,-0.124 3.035,-0.249 4.486,-0.373 1.295,-0.124 2.611,-0.238 3.957,-0.332 1.336,-0.093 2.538,-0.197 3.584,-0.321 0.704,3.833 1.336,7.48 1.896,10.96 0.28,1.492 0.559,3.046 0.86,4.662 0.3,1.616 0.591,3.17 0.87,4.662 0.269,1.492 0.539,2.921 0.818,4.289 0.269,1.367 0.539,2.569 0.808,3.615 0.176,-1.057 0.383,-2.269 0.611,-3.636 0.228,-1.378 0.477,-2.828 0.746,-4.351 0.28,-1.533 0.559,-3.087 0.86,-4.693 0.3,-1.595 0.58,-3.149 0.86,-4.651 0.684,-3.501 1.399,-7.148 2.134,-10.95 l 9.106,-1.274 c -1.575,7.5 -2.952,14.607 -4.133,21.309 -0.559,2.901 -1.088,5.822 -1.616,8.774 -0.528,2.952 -1.015,5.801 -1.471,8.547 -0.447,2.756 -0.831,5.294 -1.141,7.614 z m 33.699,-42.318 c -0.238,0.943 -0.456,1.937 -0.663,2.963 -0.207,1.026 -0.373,1.937 -0.518,2.735 -0.497,0.062 -1.202,0.104 -2.124,0.145 -0.922,0.042 -1.906,0.083 -2.952,0.124 -1.046,0.041 -2.103,0.073 -3.18,0.093 -1.067,0.01 -1.999,0.031 -2.797,0.041 l -2.403,13.426 c 1.544,-0.124 2.994,-0.218 4.341,-0.29 1.088,-0.072 2.207,-0.114 3.356,-0.135 1.15,-0.021 1.999,-0.052 2.548,-0.114 -0.186,1.399 -0.342,2.776 -0.497,4.123 -0.155,1.347 -0.342,2.725 -0.57,4.123 -0.497,0.052 -1.305,0.104 -2.424,0.145 -1.119,0.052 -2.258,0.104 -3.398,0.176 -1.305,0.073 -2.724,0.145 -4.268,0.218 l -2.31,13.799 10.888,-1.896 -0.611,8.526 -24.086,4.144 8.919,-53.32 23.588,-2.414 c -0.332,1.109 -0.611,2.238 -0.839,3.388 z m -72.703,14.876 c -0.238,-0.59 -0.601,-1.098 -1.077,-1.512 -0.477,-0.414 -1.119,-0.622 -1.917,-0.611 -1.595,0.031 -3.056,0.456 -4.392,1.274 -1.326,0.818 -2.528,1.896 -3.574,3.243 -1.046,1.336 -1.958,2.849 -2.725,4.527 -0.777,1.689 -1.43,3.388 -1.979,5.118 -0.539,1.73 -0.922,3.419 -1.15,5.066 -0.218,1.647 -0.321,3.077 -0.3,4.268 0.01,0.549 0.114,1.119 0.321,1.72 0.218,0.59 0.497,1.108 0.849,1.554 0.363,0.445 0.798,0.818 1.336,1.14 0.528,0.311 1.088,0.466 1.689,0.456 2.238,-0.041 4.216,-0.839 5.936,-2.414 1.72,-1.575 3.139,-3.491 4.247,-5.76 1.108,-2.258 1.958,-4.662 2.538,-7.221 0.58,-2.548 0.849,-4.869 0.818,-6.972 -0.01,-0.59 -0.062,-1.243 -0.145,-1.937 -0.081,-0.696 -0.247,-1.348 -0.475,-1.939 z m 0.477,1.937 c -0.083,-0.694 -0.249,-1.347 -0.477,-1.937 -0.238,-0.59 -0.601,-1.098 -1.077,-1.512 -0.477,-0.414 -1.119,-0.622 -1.917,-0.611 -1.595,0.031 -3.056,0.456 -4.392,1.274 -1.326,0.818 -2.528,1.896 -3.574,3.243 -1.046,1.336 -1.958,2.849 -2.725,4.527 -0.777,1.689 -1.43,3.388 -1.979,5.118 -0.539,1.73 -0.922,3.419 -1.15,5.066 -0.218,1.647 -0.321,3.077 -0.3,4.268 0.01,0.549 0.114,1.119 0.321,1.72 0.218,0.59 0.497,1.108 0.849,1.554 0.363,0.445 0.798,0.818 1.336,1.14 0.528,0.311 1.088,0.466 1.689,0.456 2.238,-0.041 4.216,-0.839 5.936,-2.414 1.72,-1.575 3.139,-3.491 4.247,-5.76 1.108,-2.258 1.958,-4.662 2.538,-7.221 0.58,-2.548 0.849,-4.869 0.818,-6.972 -0.008,-0.592 -0.06,-1.244 -0.143,-1.939 z m 0,0 c -0.083,-0.694 -0.249,-1.347 -0.477,-1.937 -0.238,-0.59 -0.601,-1.098 -1.077,-1.512 -0.477,-0.414 -1.119,-0.622 -1.917,-0.611 -1.595,0.031 -3.056,0.456 -4.392,1.274 -1.326,0.818 -2.528,1.896 -3.574,3.243 -1.046,1.336 -1.958,2.849 -2.725,4.527 -0.777,1.689 -1.43,3.388 -1.979,5.118 -0.539,1.73 -0.922,3.419 -1.15,5.066 -0.218,1.647 -0.321,3.077 -0.3,4.268 0.01,0.549 0.114,1.119 0.321,1.72 0.218,0.59 0.497,1.108 0.849,1.554 0.363,0.445 0.798,0.818 1.336,1.14 0.528,0.311 1.088,0.466 1.689,0.456 2.238,-0.041 4.216,-0.839 5.936,-2.414 1.72,-1.575 3.139,-3.491 4.247,-5.76 1.108,-2.258 1.958,-4.662 2.538,-7.221 0.58,-2.548 0.849,-4.869 0.818,-6.972 -0.008,-0.592 -0.06,-1.244 -0.143,-1.939 z"
   id="path2"
   style="fill:#000000;fill-opacity:1" />
		</g><path
   d="m 130.01035,139.47655 c -0.013,1.32 -0.027,2.64 -0.04,3.96 -0.013,0.471 -0.431,0.727 -0.86199,0.646 -6.694,-1.064 -13.495,-0.673 -19.987,1.36 -2.424,0.754 -4.822,1.939 -7.408,1.926 -2.317005,-0.013 -4.431005,-0.997 -6.600005,-1.684 -2.936,-0.929 -5.993,-1.414 -9.091,-1.333 -3.394,0.094 -6.694,1.05 -10.088,1.091 -4.041,0.054 -8.148,-0.471 -11.206,-3.327 -0.242,-0.229 -0.256,-0.512 -0.148,-0.741 0.067,-0.256 0.269,-0.458 0.62,-0.418 3.421,0.431 6.829,0.215 10.101,-0.929 2.505,-0.875 4.714,-2.37 7.179,-3.327 2.114,-0.808 4.27,-1.199 6.411,-0.243 2.855,1.28 3.839,3.623 7.65,2.074 1.886,-0.754 3.179,-1.63 5.307005,-1.832 2.68,-0.256 5.401,0.31 8.014,0.849 6.492,1.306 12.862,1.872 19.476,1.253 0.362,-0.039 0.672,0.325 0.67199,0.675 z"
   id="path6"
   style="fill:#000000;fill-opacity:1" /><path
   d="m 302.40235,120.93955 c 0.023,1.415 0.033,2.817 0.043,4.233 0.019,0.35 -0.586,0.639 -0.92399,0.361 -3.292,-2.72 -8.264,-1.882 -12.411,-0.764 -4.094,1.101 -7.993,2.568 -12.132,3.591 -9.303,2.289 -18.888,3.137 -28.54501,2.91 -4.794,-0.102 -9.596,-0.352 -14.39,0.045 -5.451,0.46 -9.628,2.267 -14.632,3.754 -3.597,1.06 -7.187,1.04 -10.901,0.704 -4.827,-0.451 -9.893,-1.347 -14.182,1.126 -0.052,0.03 -0.092,0.046 -0.132,0.048 -0.213,0.052 -0.486,-0.014 -0.628,-0.141 -0.128,-0.114 -0.177,-0.274 -0.052,-0.456 1.637,-2.383 4.23401,-4.211 7.486,-5.184 3.889,-1.157 7.143,-0.364 11.025,0.085 5.34801,0.611 7.793,-3.016 12.63701,-3.74 4.884,-0.712 10.12099,0.323 15.052,0.229 20.993,-0.406 41.078,-7.062 62.098,-7.214 0.295,-0.002 0.588,0.17 0.58799,0.413 z"
   id="path8"
   style="fill:#000000;fill-opacity:1" /><path
   d="m 280.26735,140.92255 c -0.673,1.266 -1.576,1.576 -2.90899,1.926 -2.18201,0.579 -4.256,0.902 -6.411,1.697 -4.41801,1.643 -9.10501,2.168 -13.77801,1.428 -2.788,-0.444 -5.266,-1.562 -7.96,-2.33 -3.677,-1.05 -7.031,-0.431 -10.694,0.296 -3.488,0.687 -6.882,0.902 -10.142,-0.795 -0.283,-0.135 -0.364,-0.471 -0.31,-0.754 0.108,-0.512 0.148,-0.512 0.512,-0.956 0.04,-0.135 0.135,-0.256 0.31,-0.337 3.569,-1.657 7.246,-3.367 11.179,-3.96 4.593,-0.687 8.701,0.875 13.199,1.36 4.566,0.485 8.76801,-1.603 13.347,-1.455 4.552,0.135 8.957,1.522 13.253,2.882 0.43,0.136 0.619,0.594 0.404,0.998 z"
   id="path10"
   style="fill:#000000;fill-opacity:1" /><path
   d="m 100.97635,158.90655 c 0,0.027 0,0.067 -0.013,0.094 -0.013,0.175 -0.108,0.35 -0.296,0.471 -2.194995,1.508 -4.888995,1.616 -7.474995,1.724 -4.162,0.175 -7.973,0.296 -11.879,1.872 -3.327,1.36 -9.024,2.182 -9.846,-2.667 -0.04,-0.283 0.027,-0.62 0.31,-0.768 2.599,-1.306 5.401,-2.68 8.391,-2.613 1.077,0.027 1.966,0.377 3.003,0.633 2.532,0.62 3.933,0.593 6.034,-0.768 3.852,-2.478 8.552,-2.061 11.582995,1.522 l 0.013,0.013 c 0.013,0.013 0.013,0.013 0.013,0.027 0.027,0.027 0.04,0.054 0.054,0.067 0.013,0.013 0.013,0.027 0.027,0.04 0.027,0.067 0.054,0.121 0.054,0.189 0.013,0.013 0.013,0.013 0.013,0.027 0.014,0.043 0.014,0.097 0.014,0.137 z"
   id="path12"
   style="fill:#000000;fill-opacity:1" /><path
   d="m 296.90935,150.85555 c -0.13499,0.269 -0.485,0.364 -0.754,0.296 -5.657,-1.145 -10.303,3.488 -15.826,3.744 -5.455,0.242 -11.192,-2.478 -16.324,-4.041 -0.027,-0.013 -0.04,-0.04 -0.067,-0.054 -0.067,-0.027 -0.108,-0.067 -0.148,-0.108 -0.094,-0.081 -0.162,-0.162 -0.202,-0.269 -0.027,-0.081 -0.054,-0.162 -0.054,-0.256 0,-0.027 0.013,-0.054 0.013,-0.081 0.04,-0.242 0.202,-0.471 0.458,-0.539 0,-0.013 0.013,-0.013 0.027,0 0.04,-0.013 0.094,-0.027 0.148,-0.013 0.027,0 0.04,0 0.067,0.013 2.815,0.337 5.576,0.31 8.364,-0.296 1.495,-0.323 2.936,-1.051 4.445,-1.266 2.451,-0.364 4.364,0.97 6.896,-0.229 1.024,-0.485 1.886,-1.279 3.057,-1.428 1.293,-0.175 1.845,0.498 2.977,0.835 1.791,0.525 4,-0.067 5.67,0.593 1.374,0.54 1.886,1.847 1.253,3.099 z"
   id="path14"
   style="fill:#000000;fill-opacity:1" /><path
   d="m 294.66736,107.71255 c -16.461,1.575 -32.974,3.201 -49.58,4.931 -2.745,-16.171001 -11.66501,-31.379001 -22.54201,-37.833001 -2.05099,-1.222 -4.486,-1.968 -7.107,-1.854 1.15,-1.243 0.176,-4.092 0.736,-5.781 3.615,-0.57 8.433,0.539 10.867,-1.626 0.497,-5.718 -3.999,-9.137 -9.738,-9.013 3.543,-9.002 -6.868,-11.603 -15.715,-9.241 -3.087,2.279 -3.698,6.444 -5.863,9.417 -4.455,0.829 -9.862,0.943 -12.027,3.522 1.264,4.196 7.428,2.579 11.012,4.04 2.984,5.024 1.088,14.762 8.982,14.793 -0.197,5.48 -4.351,11.841 -0.818,17.621 -1.875,1.999 -7.303,1.305 -7.79,4.361001 -31.099,-25.961001 -65.979,-58.738001 -106.079995,-78.193001 -13.281,-6.444 -30.457,-12.794 -46.472,-12.856 -6.112,-0.031 -12.348,1.254 -15.777,3.274 -0.176,0 -0.363,0.052 -0.549,0.176 -0.083,0.052 -0.166,0.114 -0.249,0.166 -14.804,10.028 -3.035,28.882 -3.294,42.505 -0.176,9.759 -5.853,18.129 -9.468,26.872 -2.87,6.941 -3.895,13.747 -2.714,21.185001 1.512,9.5 5.729,18.523 6.071,28.219 0.155,4.351 -1.347,8.464 -1.316,12.763 0.021,3.864 1.709,7.397 3.522,10.712 6.008,11.022 8.547,20.522 2.652,32.228 -2.393,4.755 -5.055,11.82 0.228,15.798 1.606,1.212 3.812,1.43 5.656,0.829 6.444,8.256 -2.217,22.78 7.852,28.198 2.921,1.575 7.625,2.652 10.494,0.373 3.346,-2.662 3.356,-9.51 3.957,-13.312 0.145,-0.953 -0.953,-1.813 -1.74,-1.005 -1.502,1.554 -2.88,3.16 -4.185,4.89 -0.798,1.057 0.995,2.093 1.792,1.036 0.559,-0.725 1.119,-1.419 1.699,-2.093 -0.539,4.092 -1.461,8.598 -5.801,9.655 -4.268,1.046 -8.298,-3.274 -8.94,-6.91 -0.342,-1.937 -0.041,-4.227 -0.062,-6.205 -0.052,-5.48 0.114,-11.178 -3.222,-15.622 1.274,-1.036 1.989,-2.673 1.45,-4.755 -1.367,-5.231 -7.107,-2.963 -9.779,-0.062 -0.321,-1.896 -0.176,-3.729 0.466,-5.501 0.767,-2.548 2.32,-4.796 3.419,-7.2 1.285,-2.787 2.144,-5.677 2.414,-8.733 0.653,-7.324 -1.834,-14.12 -5.304,-20.418 -2.745,-4.973 -4.993,-9.303 -4.165,-15.156 0.59,-4.071 1.233,-7.79 0.818,-11.955 -0.704,-7.334 -3.315,-14.296 -4.983,-21.423 -2.144,-9.106001 -1.585,-17.352001 2.134,-25.950001 2.932,-6.806 6.93,-13.322 8.464,-20.667 1.502,-7.169 -0.145,-13.996 -1.823,-20.957 -2.01,-8.36 -3.698,-18.688 3.657,-24.728 0.787,5.646 3.388,10.577 10.018,10.774 7.469,0.228 14.638,-5.895 20.304,-10.618 -2.227,7.521 -3.792,17.787 6.361,19.269 6.112,0.891 13.975,-1.16 18.999,-5.563 -2.383,7.438 -1.948,15.694 6.692,18.626 7.956,2.693 17.984005,0.932 24.231005,-4.9 -1.72,8.93 -2.414,22.159 5.71799,26.385 8.588,4.455 17.839,0.528 24.448,-5.49 0.953,0.073 1.564,-1.098 2.25801,-1.544 15.69499,13.198 32.477,25.07 46.286,40.495001 -3.129,-1.471 -9.469,0.632 -9.106,4.941 0.238,2.942 3.377,2.787 4.755,5.615 4.175,-2.662 4.175,1.243 7.95599,1.316 1.43001,-1.471 1.94801,-2.963 0.38301,-4.848 2.859,0.352 2.65199,4.361 5.573,4.641 -7.99701,2.797 -17.155,2.704 -25.847,3.274 -31.731,2.103 -64.508,5.428 -95.379005,6.537 -4.33,0.155 -8.661,0.166 -12.897,0.186 -3.17,2.952 -6.309,5.936 -9.427,8.951 34.196,-1.875 68.569005,-4.268 102.610005,-6.568 45.395,-3.066 90.707,-7.469 135.615,-12.763 z m -268.900005,90.427 c 1.803,0 3.263,1.171 3.263,2.611 0,1.43 -1.461,2.6 -3.263,2.6 -1.803,0 -3.263,-1.171 -3.263,-2.6 0,-1.44 1.461,-2.611 3.263,-2.611 z m 16.783,-174.888001 c -2.683,1.316 -6.071,2.289 -9.033,1.295 -4.434,-1.471 -5.366,-5.698 -5.708,-9.717 1.036,-0.466 2.186,-1.15 3.16,-1.367 7.407,-1.72 17.932,-1.171 23.443,0.041 0.756,-0.135 1.222,0.062 1.564,0.404 -4.144,3.388 -8.599,6.983 -13.426,9.344 z m 22.272,10.463 c -11.406,-0.145 -8.308,-11.696 -5.977,-18.813 0,-0.01 0,-0.01 0.01,-0.01 0.228,-0.218 0.559,-0.352 1.202,-0.249 8.37,2.134 16.233,4.869 23.454,8.381 0.207,0.031 0.342,0.135 0.435,0.3 -0.052,0.062 -0.083,0.135 -0.114,0.218 -2.559,7.004 -12.131,10.267 -19.01,10.173 z m 26.904,13.768 c -5.687,-1.088 -9.769,-4.796 -9.365,-10.908 0.249,-3.667 1.502,-7.407 3.201,-10.691 1.005,-0.373 1.14,-1.616 2.321,-0.715 8.401,3.895 16.035995,8.712 23.971995,13.146 1.15,0.487 0.622,1.419 0.777,2.372 -4.808,5.895 -13.653995,8.184 -20.905995,6.796 z m 49.507995,15.736 c -5.812,5.283 -13.726,8.868 -21.423,5.366 -8.55699,-3.916 -6.537,-19.414 -4.631,-27.307 0.34201,-0.041 0.653,0.062 1.191,0.487 8.88801,5.604 16.979,12.152 25.453,18.243 0.259,1.212 -0.632,2.237 -0.59,3.211 z"
   id="path16"
   style="fill:#000000;fill-opacity:1" /><path
   d="m 29.031355,200.75055 c 0,1.43 -1.461,2.6 -3.263,2.6 -1.803,0 -3.263,-1.171 -3.263,-2.6 0,-1.44 1.461,-2.611 3.263,-2.611 1.802,0 3.263,1.171 3.263,2.611 z"
   id="path18"
   style="fill:#000000;fill-opacity:1" /><g
   id="g36"
   transform="translate(-38.194645,-5.8714514)"
   style="fill:#117799;fill-opacity:1">
			<g
   id="g34"
   style="fill:#117799;fill-opacity:1">
				<path
   d="m 105.304,376.978 c 2.154,-0.431 4.388,-0.924 6.636,-1.368 0.603,-10.415 0.88,-15.804 1.388,-26.93 2.107,-0.435 4.006,-0.81 5.69,-1.129 1.684,-0.319 3.321,-0.634 4.905,-0.95 1.584,-0.315 2.806,-0.563 3.664,-0.748 0.043,-1.855 0.102,-3.722 0.176,-5.603 0.074,-1.881 0.094,-3.793 0.059,-5.732 -0.843,0.311 -2.048,0.687 -3.616,1.141 -1.568,0.454 -3.103,0.903 -4.602,1.348 -1.827,0.542 -3.745,1.152 -5.754,1.827 0.413,-6.904 0.61,-10.426 0.987,-17.61 6.043,-2.563 9.078,-3.801 15.169,-6.186 0.5,-5.539 0.745,-8.351 1.226,-14.057 -10.716,5.63 -21.298,11.516 -31.748,17.626 -0.364,8.655 -0.715,16.886 -1.289,24.437 -0.244,3.211 -0.576,6.565 -0.878,9.951 -0.302,3.387 -0.651,6.684 -1.045,9.885 -0.395,3.203 -0.816,6.199 -1.261,8.997 -0.446,2.8 -0.948,5.276 -1.506,7.442 1.651,-0.341 3.569,-0.725 5.75,-1.161 2.18,-0.439 4.225,-0.815 6.049,-1.18 z"
   id="path20"
   style="fill:#117799;fill-opacity:1" />
				<path
   d="m 143.42,376.393 c 0.155,-3.151 0.347,-6.704 0.571,-10.689 0.224,-3.983 0.427,-8.138 0.609,-12.468 0.182,-4.328 0.388,-8.746 0.616,-13.259 0.228,-4.511 0.452,-8.924 0.674,-13.228 0.561,-10.532 1.039,-21.072 1.445,-31.611 -5.923,3.687 -8.877,5.542 -14.772,9.253 -0.344,9.731 -0.805,19.468 -1.404,29.187 -0.258,3.978 -0.521,8.048 -0.79,12.201 -0.269,4.154 -0.584,8.211 -0.946,12.161 -0.362,3.951 -0.735,7.674 -1.118,11.18 -0.383,3.506 -0.81,6.648 -1.281,9.439 0.128,-0.066 0.94,-0.205 2.437,-0.421 1.497,-0.216 3.177,-0.454 5.042,-0.72 1.863,-0.265 3.663,-0.5 5.4,-0.703 1.736,-0.202 2.909,-0.313 3.517,-0.322 z"
   id="path22"
   style="fill:#117799;fill-opacity:1" />
				<path
   d="m 189.087,345.836 c -0.56,-4.696 -1.475,-8.523 -2.741,-11.432 -1.266,-2.91 -2.686,-5.249 -4.258,-7.013 -1.572,-1.763 -3.216,-3.104 -4.926,-4.027 -1.71,-0.922 -3.302,-1.822 -4.769,-2.702 -1.467,-0.88 -2.728,-1.87 -3.782,-2.98 -1.053,-1.109 -1.698,-2.645 -1.938,-4.63 -0.15,-1.241 -0.027,-2.469 0.371,-3.699 0.397,-1.227 0.926,-2.349 1.588,-3.367 0.661,-1.016 1.34,-1.891 2.037,-2.622 0.695,-0.731 1.307,-1.176 1.835,-1.332 1.12,-0.331 2.096,-0.02 2.928,0.945 0.832,0.965 1.404,2.75 1.714,5.339 0.083,0.692 0.116,1.394 0.099,2.108 -0.017,0.717 -0.051,1.434 -0.1,2.155 5.503,-3.575 8.254,-5.39 13.76,-9.046 -0.039,-1.48 -0.051,-2.878 -0.036,-4.192 0.015,-1.311 -0.052,-2.605 -0.203,-3.879 -0.355,-2.998 -0.999,-5.404 -1.929,-7.194 -0.93,-1.789 -2.051,-3.16 -3.358,-4.098 -1.308,-0.939 -2.787,-1.432 -4.433,-1.48 -1.645,-0.048 -3.356,0.244 -5.127,0.863 -3.215,1.124 -6.522,3.183 -9.927,6.078 -3.406,2.897 -6.465,6.228 -9.185,9.913 -2.721,3.686 -4.883,7.607 -6.487,11.743 -1.605,4.136 -2.173,8.107 -1.692,12.049 0.296,2.428 1.092,4.481 2.388,6.211 1.298,1.731 2.792,3.254 4.481,4.576 1.69,1.321 3.526,2.574 5.503,3.761 1.979,1.187 3.828,2.423 5.544,3.692 1.716,1.268 3.198,2.693 4.439,4.252 1.241,1.56 1.985,3.36 2.226,5.359 0.141,1.168 0.046,2.211 -0.285,3.123 -0.331,0.913 -0.827,1.733 -1.485,2.457 -0.66,0.724 -1.408,1.283 -2.241,1.679 -0.835,0.398 -1.655,0.627 -2.461,0.692 -0.942,0.076 -2.033,-0.101 -3.269,-0.516 -1.237,-0.416 -2.493,-0.962 -3.76,-1.629 -1.267,-0.667 -2.436,-1.471 -3.499,-2.406 -1.065,-0.936 -1.891,-1.863 -2.479,-2.797 -2.154,7.039 -3.243,10.444 -5.45,17.007 2.914,3.329 5.833,5.852 8.74,7.468 2.906,1.616 5.722,2.477 8.434,2.486 3.864,0.013 7.387,-0.688 10.561,-2.196 3.173,-1.508 5.824,-3.7 7.953,-6.603 2.127,-2.903 3.677,-6.41 4.649,-10.498 0.974,-4.085 1.161,-8.654 0.57,-13.618 z"
   id="path24"
   style="fill:#117799;fill-opacity:1" />
				<path
   d="m 228.411,281.408 c -2.078,1.739 -5.386,2.222 -7.117,-0.48 -0.704,-1.098 -1.542,-2.116 -2.07,-3.321 -0.366,-0.836 -0.517,-1.716 -0.705,-2.593 -0.278,6.134 -0.417,12.043 -0.399,17.72 0.022,6.672 -0.033,13.548 -0.167,20.612 -3.906,1.245 -5.858,1.875 -9.76,3.146 0.136,-6.99 0.33,-14.236 0.579,-21.754 0.249,-7.515 0.543,-14.81 0.884,-21.876 -6.379,2.35 -9.562,3.577 -15.913,6.12 0.038,4.385 0.061,9.21 0.066,14.461 0.005,5.251 -0.006,10.645 -0.034,16.17 -0.028,5.528 -0.084,11.097 -0.17,16.699 -0.085,5.603 -0.131,10.954 -0.137,16.063 -0.265,12.186 -0.547,24.372 -0.846,36.557 6.068,-1.641 9.098,-2.505 15.154,-4.301 0.154,-5.026 0.354,-10.132 0.455,-15.176 0.084,-4.199 0.112,-8.733 0.199,-13.495 0.088,-4.758 0.155,-8.971 0.204,-12.622 3.849,-0.967 5.775,-1.448 9.627,-2.4 0.015,3.638 -0.038,8.01 -0.16,13.091 -0.122,5.084 -0.307,9.994 -0.39,14.586 -0.099,5.446 -0.161,11.138 -0.372,16.87 6.23,-1.015 9.344,-1.541 15.571,-2.62 -0.194,-13.041 -0.313,-26.081 -0.333,-39.117 -0.008,-5.363 0.021,-11.06 0.077,-17.091 0.056,-6.029 0.151,-12.014 0.288,-17.957 0.098,-4.252 0.216,-8.414 0.353,-12.49 -1.613,-1.609 -3.171,-3.289 -4.884,-4.802 z"
   id="path26"
   style="fill:#117799;fill-opacity:1" />
				<path
   d="m 242.786,269.394 c 0.049,0.475 0.094,0.939 0.129,1.373 0.453,5.575 3.789,11.117 3.164,16.84 -0.311,2.847 -3.862,4.938 -6.475,3.569 -0.451,-0.236 -0.877,-0.503 -1.299,-0.773 -0.053,7.357 -0.119,14.713 -0.206,22.071 -0.098,5.695 -0.19,11.569 -0.278,17.621 -0.089,6.054 -0.221,12.006 -0.399,17.854 -0.178,5.85 -0.37,11.414 -0.575,16.702 -0.206,5.288 -0.469,10.073 -0.789,14.357 0.125,-0.098 0.933,-0.288 2.426,-0.57 1.494,-0.283 3.171,-0.591 5.032,-0.928 1.86,-0.336 3.659,-0.626 5.396,-0.867 1.735,-0.241 2.909,-0.362 3.52,-0.357 0.024,-4.538 0.073,-9.63 0.14,-15.291 0.068,-5.658 0.114,-11.519 0.137,-17.583 0.024,-6.062 0.074,-12.202 0.15,-18.416 0.076,-6.213 0.156,-12.24 0.243,-18.075 0.207,-14.049 0.384,-28.097 0.535,-42.147 -4.451,1.852 -7.28,3.055 -10.851,4.62 z"
   id="path28"
   style="fill:#117799;fill-opacity:1" />
				<path
   d="m 299.175,303.354 c 0.067,-9.764 0.23,-19.525 0.423,-29.286 -1.43,0.445 -3.054,0.26 -4.285,-0.794 -1.163,-0.996 -1.861,-2.166 -2.592,-3.303 -1.146,-0.564 -2.268,-1.252 -3.294,-1.969 -0.466,-0.325 -0.901,-0.687 -1.352,-1.031 -0.098,-0.075 -0.188,-0.134 -0.272,-0.188 -0.102,5.753 -0.206,11.344 -0.313,16.757 -0.036,3.296 -0.078,6.701 -0.124,10.211 -0.046,3.513 -0.085,6.937 -0.116,10.277 -0.031,3.343 -0.048,6.515 -0.049,9.52 -0.002,3.009 -0.01,5.656 -0.021,7.95 -0.597,-2.272 -1.229,-4.894 -1.904,-7.87 -0.674,-2.971 -1.364,-6.08 -2.067,-9.32 -0.705,-3.24 -1.44,-6.611 -2.207,-10.114 -0.767,-3.5 -1.531,-6.884 -2.206,-10.093 -1.571,-7.471 -3.199,-15.429 -5.01,-23.671 -1.387,0.361 -2.98,0.719 -4.775,1.086 -1.795,0.367 -3.563,0.781 -5.278,1.203 -1.911,0.47 -3.914,0.944 -5.969,1.449 0.215,4.932 0.372,10.379 0.467,16.329 0.095,5.95 0.161,12.111 0.2,18.464 0.039,6.358 0.039,12.809 -0.002,19.347 -0.041,6.538 -0.068,12.765 -0.075,18.68 -0.165,14.415 -0.36,28.829 -0.587,43.243 5.71,-2.036 8.563,-3.083 14.266,-5.213 0.093,-8.185 0.111,-16.123 0.175,-23.686 0.027,-3.196 0.046,-6.51 0.004,-9.888 -0.041,-3.378 -0.073,-6.655 -0.091,-9.829 -0.018,-3.171 -0.016,-6.161 0.008,-8.965 0.024,-2.803 0.027,-5.181 0.012,-7.124 0.42,1.918 0.91,4.297 1.467,7.128 0.558,2.832 1.136,5.857 1.736,9.07 0.6,3.212 1.235,6.591 1.906,10.131 0.67,3.54 1.285,6.995 1.875,10.312 1.391,7.821 2.87,16.137 4.33,24.873 0.833,-0.422 2.111,-0.977 3.832,-1.668 1.719,-0.689 3.442,-1.357 5.168,-2 1.724,-0.642 3.257,-1.206 4.593,-1.691 1.335,-0.484 2.106,-0.728 2.309,-0.727 -0.122,-3.494 -0.231,-7.785 -0.328,-12.87 -0.097,-5.085 -0.147,-10.641 -0.147,-16.67 0,-6.026 0.025,-12.281 0.075,-18.762 0.051,-6.48 0.123,-12.914 0.218,-19.298 z"
   id="path30"
   style="fill:#117799;fill-opacity:1" />
				<path
   d="m 351.32,318.011 c -2.084,0.552 -4.516,1.156 -7.295,1.82 -2.782,0.664 -5.431,1.242 -7.929,1.731 -2.961,0.579 -5.998,1.189 -9.101,1.81 -0.026,6.531 -0.039,9.798 -0.066,16.334 4.225,-1.021 6.337,-1.523 10.558,-2.501 0.299,3.186 0.212,6.116 -0.257,8.797 -0.469,2.683 -1.164,5.036 -2.082,7.06 -0.92,2.025 -2.046,3.583 -3.375,4.672 -1.332,1.091 -2.676,1.633 -4.03,1.626 -1.967,-0.011 -3.741,-1.479 -5.325,-4.403 -1.583,-2.921 -2.832,-7.855 -3.536,-14.63 -0.736,-7.087 -0.822,-14.429 -0.442,-21.808 0.38,-7.376 1.096,-14.146 2.151,-20.298 1.054,-6.149 2.369,-11.16 3.945,-15.019 1.576,-3.857 3.205,-5.749 4.89,-5.685 1.279,0.049 2.533,1.034 3.757,2.943 1.226,1.912 2.394,5.077 3.507,9.489 5.343,-1.457 8.013,-2.142 13.346,-3.404 -0.446,-3.797 -1.157,-7.431 -2.13,-10.902 -0.973,-3.47 -2.249,-6.542 -3.824,-9.21 -1.575,-2.668 -3.446,-4.853 -5.605,-6.535 -2.159,-1.681 -4.587,-2.615 -7.276,-2.77 -3.768,-0.218 -7.626,1.313 -11.579,4.631 -3.953,3.318 -7.436,8.547 -10.447,15.626 -3.012,7.083 -5.148,15.987 -6.483,26.552 -1.562,12.361 -0.763,24.935 0.42,37.108 0.694,7.139 2,13.545 3.554,18.92 1.555,5.378 3.367,9.861 5.431,13.44 2.065,3.58 4.335,6.265 6.809,8.041 2.473,1.775 4.966,2.673 7.479,2.686 3.259,0.016 6.548,-1.354 9.863,-4.094 3.315,-2.741 6.228,-6.916 8.735,-12.49 2.507,-5.574 4.397,-12.463 5.67,-20.658 1.274,-8.197 1.493,-17.805 0.667,-28.879 z"
   id="path32"
   style="fill:#117799;fill-opacity:1" />
			</g>
		</g><g
   id="g40"
   transform="translate(-38.194645,-5.8714514)"
   style="fill:#000000;fill-opacity:1">
			<path
   d="m 108.96,183.862 c -0.374,-0.12 -0.783,-0.176 -1.199,-0.176 -1.538,0 -3.203,0.769 -4.021,1.989 -2.109,3.048 0.106,7.499 3.753,7.499 h 0.021 c 2.349,-0.021 4.515,-1.954 4.846,-4.331 0.282,-1.997 -1.298,-4.297 -3.4,-4.981 z m -0.092,3.238 c -0.367,0 -0.776,-0.092 -1.199,-0.296 -1.122,-0.55 -1.474,-1.178 -0.924,-1.721 0.388,-0.381 0.945,-0.543 1.503,-0.543 1.037,0 2.074,0.593 1.961,1.481 -0.071,0.691 -0.615,1.079 -1.341,1.079 z"
   id="path38"
   style="fill:#000000;fill-opacity:1" />
		</g><g
   id="g44"
   transform="translate(-38.194645,-5.8714514)"
   style="fill:#000000;fill-opacity:1">
			<path
   d="m 84.632,171.3 c -0.667,-0.31 -1.354,-0.455 -2.032,-0.455 -2.114,0 -4.084,1.427 -4.663,3.681 -0.222,0.884 -0.222,1.184 0.052,2.125 0.615,2.202 2.435,3.572 4.658,3.577 1.458,-0.016 2.564,-0.517 3.505,-1.592 2.073,-2.399 1.318,-6.002 -1.52,-7.336 z m -0.863,2.957 c -0.579,0 -1.199,-0.196 -1.644,-0.62 -0.879,-0.822 -0.796,-1.401 0.243,-1.799 0.341,-0.129 0.61,-0.191 0.874,-0.191 0.269,0 0.538,0.062 0.868,0.196 0.76,0.3 1.199,0.801 1.199,1.344 -0.005,0.683 -0.723,1.07 -1.54,1.07 z"
   id="path42"
   style="fill:#000000;fill-opacity:1" />
		</g><g
   id="g48"
   transform="translate(-38.194645,-5.8714514)"
   style="fill:#000000;fill-opacity:1">
			<path
   d="m 99.11,287.893 c -0.556,-0.131 -1.111,-0.196 -1.678,-0.196 -2.451,0 -4.88,1.231 -6.22,3.257 -1.525,2.309 -1.623,6.155 -0.196,8.181 1.471,2.07 3.203,3.127 5.686,3.388 0.338,0.044 0.654,0.054 0.97,0.054 2.059,0 3.682,-0.752 5.153,-2.397 1.405,-1.514 1.787,-2.691 1.787,-5.272 0.01,-3.365 -2.212,-6.209 -5.502,-7.015 z m 0.044,5.066 h -0.022 c -2.615,-0.011 -4.249,-1.917 -2.854,-3.301 0.327,-0.327 1.046,-0.479 1.841,-0.479 0.948,0 2.004,0.218 2.625,0.664 1.809,1.264 0.883,3.116 -1.59,3.116 z"
   id="path46"
   style="fill:#000000;fill-opacity:1" />
		</g><g
   id="g52"
   transform="translate(-38.194645,-5.8714514)"
   style="fill:#000000;fill-opacity:1">
			<path
   d="m 126.04,265.813 c -1.381,-0.861 -4.824,-1.502 -6.83,-1.268 -0.641,0.04 -2.181,0.688 -3.483,1.408 l -0.476,0.268 c -1.606,0.903 -2.193,1.496 -3.219,3.08 -3.855,6.014 -1.353,12.715 5.475,14.569 2.425,0.664 5.242,0.168 7.613,-1.165 1.615,-0.908 3.033,-2.209 3.96,-3.795 2.795,-4.617 1.472,-10.205 -3.04,-13.097 z m -4.436,4.784 -0.009,0.005 c -2.572,1.434 -4.897,1.275 -5.854,-0.362 -0.377,-0.67 -0.298,-1.207 0.28,-2.058 0.473,-0.667 0.977,-1.168 1.612,-1.525 0.597,-0.336 1.315,-0.545 2.2,-0.653 1.427,-0.172 3.279,0.436 3.695,1.175 0.469,0.836 -0.552,2.646 -1.924,3.418 z"
   id="path50"
   style="fill:#000000;fill-opacity:1" />
		</g><g
   id="g56"
   transform="translate(-38.194645,-5.8714514)"
   style="fill:#000000;fill-opacity:1">
			<path
   d="m 175.374,166.361 c -0.819,-0.515 -1.96,-0.773 -3.101,-0.773 -1.15,0 -2.319,0.258 -3.175,0.791 -1.389,0.856 -2.54,3.064 -2.577,4.877 -0.009,1.96 1.196,4.067 2.871,4.996 0.865,0.488 1.794,0.718 2.705,0.718 2.972,0 5.815,-2.356 5.825,-5.539 0.01,-1.996 -1.058,-4.103 -2.548,-5.07 z m -0.083,2.779 c -0.396,0.322 -0.911,0.46 -1.454,0.46 -1.684,0 -3.589,-1.297 -2.641,-2.429 0.294,-0.331 0.929,-0.497 1.62,-0.497 0.856,0 1.794,0.248 2.264,0.727 0.855,0.856 0.892,1.215 0.211,1.739 z"
   id="path54"
   style="fill:#000000;fill-opacity:1" />
		</g><g
   id="g60"
   transform="translate(-38.194645,-5.8714514)"
   style="fill:#000000;fill-opacity:1">
			<path
   d="m 268.126,167.424 c -0.529,-1.333 -2.489,-3.047 -3.821,-3.39 -0.451,-0.108 -0.892,-0.167 -1.333,-0.167 -3.126,0 -5.85,2.626 -5.859,5.987 -0.01,3.557 2.891,5.683 5.81,5.683 1.94,0 3.89,-0.941 5.007,-3.028 0.872,-1.558 0.911,-3.341 0.196,-5.085 z m -3.743,0.666 h -0.01 c -2.126,0 -3.302,-1.529 -2.087,-2.734 0.284,-0.284 0.735,-0.411 1.215,-0.411 1.088,0 2.391,0.617 2.616,1.479 0.265,1.068 -0.343,1.666 -1.734,1.666 z"
   id="path58"
   style="fill:#000000;fill-opacity:1" />
		</g><g
   id="g64"
   transform="translate(-38.194645,-5.8714514)"
   style="fill:#000000;fill-opacity:1">
			<path
   d="m 91.071,204.262 c 0.781,-0.363 1.586,-0.533 2.379,-0.533 2.475,0 4.781,1.67 5.459,4.309 0.26,1.035 0.26,1.386 -0.061,2.488 -0.72,2.578 -2.851,4.182 -5.453,4.188 -1.707,-0.018 -3.002,-0.605 -4.103,-1.864 -2.427,-2.808 -1.544,-7.027 1.779,-8.588 z m 1.011,3.462 c 0.678,0 1.404,-0.23 1.925,-0.726 1.029,-0.962 0.932,-1.64 -0.284,-2.106 -0.399,-0.151 -0.714,-0.224 -1.023,-0.224 -0.315,0 -0.629,0.073 -1.017,0.23 -0.89,0.351 -1.404,0.938 -1.404,1.574 0.005,0.798 0.847,1.252 1.803,1.252 z"
   id="path62"
   style="fill:#000000;fill-opacity:1" />
		</g><g
   id="g68"
   transform="translate(-38.194645,-5.8714514)"
   style="fill:#000000;fill-opacity:1">
			<path
   d="m 180.811,149.147 c 0.219,-0.052 0.439,-0.077 0.662,-0.077 0.968,0 1.927,0.486 2.456,1.286 0.602,0.912 0.641,2.43 0.077,3.23 -0.581,0.817 -1.265,1.235 -2.245,1.338 -0.133,0.017 -0.258,0.021 -0.383,0.021 -0.813,0 -1.454,-0.297 -2.035,-0.946 -0.555,-0.598 -0.705,-1.062 -0.705,-2.082 -0.004,-1.329 0.874,-2.451 2.173,-2.77 z m -0.018,2 h 0.009 c 1.032,-0.004 1.678,-0.757 1.127,-1.303 -0.129,-0.129 -0.413,-0.189 -0.727,-0.189 -0.374,0 -0.791,0.086 -1.037,0.262 -0.714,0.499 -0.348,1.23 0.628,1.23 z"
   id="path66"
   style="fill:#000000;fill-opacity:1" />
		</g><g
   id="g72"
   transform="translate(-38.194645,-5.8714514)"
   style="fill:#000000;fill-opacity:1">
			<path
   d="m 87.944,251.036 c 0.56,-1.41 2.633,-3.224 4.042,-3.586 0.477,-0.114 0.943,-0.176 1.41,-0.176 3.306,0 6.188,2.778 6.198,6.333 0.01,3.763 -3.058,6.012 -6.146,6.012 -2.052,0 -4.115,-0.995 -5.297,-3.203 -0.923,-1.649 -0.964,-3.535 -0.207,-5.38 z m 3.959,0.705 h 0.01 c 2.249,0 3.493,-1.617 2.208,-2.892 -0.301,-0.301 -0.777,-0.435 -1.285,-0.435 -1.15,0 -2.529,0.653 -2.767,1.565 -0.28,1.13 0.362,1.762 1.834,1.762 z"
   id="path70"
   style="fill:#000000;fill-opacity:1" />
		</g><g
   id="g76"
   transform="translate(-38.194645,-5.8714514)"
   style="fill:#000000;fill-opacity:1">
			<path
   d="m 325.183,235.911 c -0.374,-0.12 -0.783,-0.176 -1.199,-0.176 -1.538,0 -3.203,0.769 -4.021,1.989 -2.109,3.048 0.106,7.499 3.753,7.499 h 0.021 c 2.349,-0.021 4.515,-1.954 4.846,-4.331 0.283,-1.997 -1.298,-4.297 -3.4,-4.981 z m -0.092,3.238 c -0.367,0 -0.776,-0.092 -1.199,-0.296 -1.122,-0.55 -1.474,-1.178 -0.924,-1.721 0.388,-0.381 0.945,-0.543 1.503,-0.543 1.037,0 2.074,0.593 1.961,1.481 -0.071,0.691 -0.614,1.079 -1.341,1.079 z"
   id="path74"
   style="fill:#000000;fill-opacity:1" />
		</g><g
   id="g80"
   transform="translate(-38.194645,-5.8714514)"
   style="fill:#000000;fill-opacity:1">
			<path
   d="m 309.47,246.781 c 0.781,-0.363 1.586,-0.533 2.379,-0.533 2.475,0 4.781,1.67 5.459,4.309 0.26,1.035 0.26,1.386 -0.061,2.488 -0.72,2.578 -2.851,4.182 -5.453,4.188 -1.707,-0.018 -3.002,-0.605 -4.103,-1.864 -2.427,-2.808 -1.543,-7.027 1.779,-8.588 z m 1.011,3.462 c 0.678,0 1.404,-0.23 1.925,-0.726 1.029,-0.962 0.932,-1.64 -0.284,-2.106 -0.399,-0.151 -0.714,-0.224 -1.023,-0.224 -0.315,0 -0.629,0.073 -1.017,0.23 -0.89,0.351 -1.404,0.938 -1.404,1.574 0.006,0.798 0.847,1.252 1.803,1.252 z"
   id="path78"
   style="fill:#000000;fill-opacity:1" />
		</g>
<g
   id="Layer_1"
   transform="translate(-38.194645,-5.8714514)">
</g>
</svg>
