<?xml version="1.0" encoding="UTF-8" standalone="no"?> <!-- Created with Vectornator for iOS (http://vectornator.io/) --><!DOCTYPE svg PUBLIC "-//W3C//DTD SVG 1.1//EN" "http://www.w3.org/Graphics/SVG/1.1/DTD/svg11.dtd">
<svg height="100%" style="fill-rule:nonzero;clip-rule:evenodd;stroke-linecap:round;stroke-linejoin:round;" xmlns:xlink="http://www.w3.org/1999/xlink" xmlns="http://www.w3.org/2000/svg" xml:space="preserve" width="100%" xmlns:vectornator="http://vectornator.io" version="1.1" viewBox="0 0 1125 1126">
<metadata>
<vectornator:setting key="doHistoryDisabled" value="0"/>
<vectornator:setting key="TimeLapseWatermarkDisabled" value="0"/>
<vectornator:setting key="SnapToPoints" value="0"/>
<vectornator:setting key="OutlineMode" value="0"/>
<vectornator:setting key="SnapToGuides" value="1"/>
<vectornator:setting key="PencilOnly" value="0"/>
<vectornator:setting key="IsolateActiveLayer" value="0"/>
<vectornator:setting key="SnapToEdges" value="0"/>
<vectornator:setting key="RulersVisible" value="1"/>
<vectornator:setting key="DynamicGuides" value="0"/>
<vectornator:setting key="SnapToGrid" value="0"/>
<vectornator:setting key="Units" value="Points"/>
<vectornator:setting key="CMYKEnabledKey" value="0"/>
<vectornator:setting key="DimensionsVisible" value="1"/>
<vectornator:setting key="DisplayWhiteBackground" value="0"/>
<vectornator:setting key="GuidesVisible" value="1"/>
</metadata>
<defs/>
<g id="Untitled" vectornator:layerName="Untitled">
<path d="M0.1+1125.9C0.1+752.28+0.0666667+378.647+0+5C0+0.93+0.93+0+5.05+0C376.677+0.113333+748.327+0.113333+1120+0C1124.12+0+1125+0.93+1125+5C1124.89+377+1124.89+748.97+1125+1120.91C1125+1125.03+1124.07+1125.91+1120+1125.91C746.667+1125.86+373.367+1125.86+0.1+1125.9ZM540.89+328.41C470.803+328.37+400.713+328.323+330.62+328.27C312.86+328.27+299.5+335.9+289.73+350.6C259.243+396.433+228.723+442.233+198.17+488C196.228+490.877+194.536+493.915+193.11+497.08C179.62+527.81+201.32+558.77+227.75+561.94C248.05+564.38+264.2+556.45+275.61+539.38C300.803+501.673+325.933+463.93+351+426.15C353+423.06+354.85+421.89+358.89+422.48C377.15+425.16+395.5+427.21+413.8+429.63C429.37+431.7+444.92+433.97+460.48+436.16C460.07+437.16+459.7+438.16+459.24+439.16C430.95+500.69+401.84+561.84+373.92+623.55C356.76+661.47+338.92+699.08+321.36+736.84C286.28+812.34+251.19+887.84+216.09+963.34C212.95+970.07+210.97+976.99+211.09+984.46C211.39+1003.24+225.5+1025.64+250.03+1030.81C271.44+1035.32+291.32+1026.95+301.88+1007.54C302.763+1005.94+303.745+1004.4+304.82+1002.93C353.34+935.597+401.533+868.013+449.4+800.18C450.524+798.311+452.018+796.691+453.79+795.42C454.517+795.39+455.24+795.293+455.95+795.13C529.843+772.377+603.73+749.573+677.61+726.72C695.1+721.29+708.05+703.36+707.61+685.05C707.08+665.17+698.07+650.05+680.04+641.05C662.34+632.21+643.82+625.16+626.18+616.05C610.97+608.22+594.9+602.05+579.18+595.18C578.42+593.64+579.18+592.42+579.91+591.11C595.01+562.65+610.1+534.187+625.18+505.72C666.76+522.72+708.43+539.53+749.9+556.82C769.52+565.01+787.6+564.17+804.3+550.27C850.853+511.563+897.377+472.807+943.87+434C960.05+420.44+964.46+398.67+955.79+379.11C947.54+360.51+926.99+349.11+906.72+351.11C894.21+352.36+885.21+359.37+876.18+366.99C840.94+396.72+805.56+426.29+770.34+456.04C767.34+458.58+765.09+458.71+761.78+456.82C752.43+451.46+742.88+446.45+733.43+441.25C710.403+428.583+687.38+415.877+664.36+403.13C660.65+382.8+650.23+367.06+631.5+357.96C612.5+348.71+593.04+340.26+573.66+331.74C563.343+327.272+551.895+326.109+540.89+328.41ZM539.2+210.64C538.973+275.391+591.299+328.057+656.05+328.25C720.28+328.39+773.16+275.8+773.4+211.54C773.63+146.78+721.29+93.94+656.68+93.72C625.587+93.6137+595.729+105.88+573.69+127.814C551.651+149.747+539.242+179.547+539.2+210.64Z" opacity="0" fill="#fefefe"/>
<path d="M453.78+795.45C452.008+796.721+450.514+798.341+449.39+800.21C401.61+868.07+353.417+935.667+304.81+1003C303.735+1004.47+302.753+1006.01+301.87+1007.61C291.31+1027.02+271.43+1035.39+250.02+1030.88C225.49+1025.71+211.38+1003.31+211.08+984.53C210.97+977.06+212.95+970.14+216.08+963.41C251.2+887.917+286.29+812.417+321.35+736.91C338.9+699.15+356.75+661.54+373.91+623.62C401.83+561.91+430.91+500.76+459.23+439.23C459.69+438.23+460.06+437.23+460.47+436.23C462.7+435.45+462.99+433.23+463.83+431.5C475.163+408.2+486.457+384.89+497.71+361.57C503.65+349.28+512.71+340+525.03+334.23C530.1+331.87+535.58+330.37+540.88+328.48C551.889+326.191+563.337+327.369+573.65+331.85C593.03+340.37+612.46+348.85+631.49+358.07C650.22+367.17+660.64+382.91+664.35+403.24C663.2+402.71+662.02+402.24+660.91+401.64C645.17+393.12+629.6+384.28+613.67+376.14C600.698+369.347+585.579+367.91+571.56+372.14C547.82+379.04+536.19+397.07+530.83+419.52C524.92+444.31+535.95+470.99+563.34+480.61C584.34+487.97+604.58+497.38+625.16+505.88C610.073+534.34+594.983+562.803+579.89+591.27C579.2+592.58+578.4+593.8+579.16+595.34C576.61+596.51+575.63+598.92+574.48+601.21C566.72+616.74+559.05+632.3+551.14+647.75C547.56+654.75+543.75+661.61+539.59+668.25C526.9+688.51+513.47+708.25+499.84+727.9C488.71+743.9+477.31+759.75+466.44+775.9C462.12+782.28+456.73+788.09+453.78+795.45Z" opacity="1" fill="#019688"/>
<path d="M625.17+505.77C604.59+497.27+584.33+487.86+563.35+480.5C535.96+470.88+524.93+444.2+530.84+419.41C536.2+396.96+547.84+378.93+571.57+372.03C585.589+367.8+600.708+369.237+613.68+376.03C629.61+384.17+645.18+393.03+660.92+401.53C662.03+402.13+663.21+402.6+664.36+403.13C687.38+415.837+710.403+428.543+733.43+441.25C742.88+446.45+752.43+451.46+761.78+456.82C765.09+458.71+767.34+458.58+770.34+456.04C805.56+426.29+840.94+396.72+876.18+366.99C885.18+359.37+894.18+352.36+906.72+351.11C926.99+349.11+947.54+360.47+955.79+379.11C964.46+398.67+960.05+420.44+943.87+434C897.463+472.913+850.937+511.687+804.29+550.32C787.59+564.22+769.51+565.06+749.89+556.87C708.42+539.58+666.75+522.77+625.17+505.77Z" opacity="1" fill="#fe9801"/>
<path d="M539.2+210.64C539.242+179.547+551.651+149.747+573.69+127.814C595.729+105.88+625.587+93.6138+656.68+93.72C721.29+93.94+773.68+146.78+773.4+211.54C773.16+275.8+720.28+328.39+656.05+328.25C591.299+328.057+538.973+275.391+539.2+210.64Z" opacity="1" fill="#fe9801"/>
<path d="M540.89+328.41C535.59+330.3+530.11+331.8+525.04+334.16C512.68+339.93+503.66+349.16+497.72+361.5C486.447+384.833+475.153+408.143+463.84+431.43C463+433.17+462.71+435.38+460.48+436.16C444.92+433.97+429.37+431.7+413.8+429.63C395.5+427.21+377.15+425.16+358.89+422.48C354.89+421.89+353.04+423.06+351+426.15C325.94+463.943+300.81+501.683+275.61+539.37C264.2+556.44+248.05+564.37+227.75+561.93C201.32+558.76+179.62+527.8+193.11+497.07C194.536+493.905+196.228+490.867+198.17+487.99C228.67+442.177+259.19+396.38+289.73+350.6C299.5+335.9+312.86+328.25+330.62+328.27C400.713+328.35+470.803+328.397+540.89+328.41Z" opacity="1" fill="#fe9801"/>
<path d="M453.78+795.45C456.78+788.09+462.12+782.28+466.45+775.83C477.32+759.64+488.72+743.83+499.85+727.83C513.48+708.2+526.91+688.44+539.6+668.18C543.76+661.54+547.6+654.65+551.15+647.68C559.06+632.23+566.73+616.68+574.49+601.14C575.64+598.85+576.62+596.44+579.17+595.27C594.86+602.16+610.93+608.27+626.17+616.14C643.81+625.22+662.33+632.27+680.03+641.14C698.03+650.14+707.03+665.24+707.6+685.14C708.08+703.45+695.13+721.38+677.6+726.81C603.76+749.67+529.873+772.453+455.94+795.16C455.23+795.323+454.507+795.42+453.78+795.45Z" opacity="1" fill="#01796b"/>
</g>
</svg>
